<?xml version="1.0" encoding="utf-8"?>
<!-- Generator: Adobe Illustrator 23.0.1, SVG Export Plug-In . SVG Version: 6.00 Build 0)  -->
<svg version="1.1" id="图层_1" xmlns="http://www.w3.org/2000/svg" xmlns:xlink="http://www.w3.org/1999/xlink" x="0px" y="0px"
	 viewBox="0 0 66 66" style="enable-background:new 0 0 66 66;" xml:space="preserve">
<style type="text/css">
	.st0{opacity:1.000000e-02;fill:none;stroke:#FFFFFF;stroke-width:0.1;enable-background:new    ;}
	.st1{fill:#595959;}
</style>
<title>图标/基础/叉号/圆形/块状</title>
<desc>Created with Sketch.</desc>
<g>
	<rect id="矩形" x="0.1" y="0.1" class="st0" width="65.9" height="65.9"/>
	<path id="形状" class="st1" d="M53.5,12.5c11.3,11.3,11.3,29.7,0,41s-29.7,11.3-41,0s-11.3-29.7,0-41S42.2,1.2,53.5,12.5z
		 M33,30.2l-7.8-7.8c-0.8-0.8-2-0.8-2.8,0c-0.8,0.8-0.8,2,0,2.8l7.8,7.8l-7.8,7.8c-0.8,0.8-0.8,2,0,2.8c0.8,0.8,2,0.8,2.8,0l7.8-7.8
		l7.8,7.8c0.8,0.8,2,0.8,2.8,0s0.8-2,0-2.8L35.8,33l7.8-7.8c0.8-0.8,0.8-2,0-2.8c-0.8-0.8-2-0.8-2.8,0L33,30.2z"/>
</g>
</svg>
