<?xml version="1.0" encoding="utf-8"?>
<!-- Generator: Adobe Illustrator 23.0.1, SVG Export Plug-In . SVG Version: 6.00 Build 0)  -->
<svg version="1.1" id="图层_1" xmlns="http://www.w3.org/2000/svg" xmlns:xlink="http://www.w3.org/1999/xlink" x="0px" y="0px"
	 viewBox="0 0 66 66" style="enable-background:new 0 0 66 66;" xml:space="preserve">
<style type="text/css">
	.st0{opacity:1.000000e-02;fill:none;stroke:#FFFFFF;stroke-width:0.1;enable-background:new    ;}
	.st1{fill:#595959;}
</style>
<title>图标/基础/对号/圆形/块状</title>
<desc>Created with Sketch.</desc>
<g>
	<rect id="矩形" x="0.1" y="0.1" class="st0" width="65.9" height="65.9"/>
	<path id="Shape" class="st1" d="M33,4C17,4,4,17,4,33s13,29,29,29s29-13,29-29S49,4,33,4z M29.7,39.8l17-17c0.8-0.8,2-0.8,2.8,0
		c0.8,0.8,0.8,2,0,2.8L31.1,44c-0.8,0.8-2,0.8-2.8,0l-7.8-7.8c-0.8-0.8-0.8-2,0-2.8c0.8-0.8,2-0.8,2.8,0L29.7,39.8z"/>
</g>
</svg>
